<?xml version="1.0" encoding="utf-8" ?>
<svg xmlns="http://www.w3.org/2000/svg" xmlns:xlink="http://www.w3.org/1999/xlink" width="1024" height="1024">
<!--	<path fill="#FDFDFD" d="M0 0L1024 0L1024 1024L0 1024L0 0ZM898.128 746.776C899.942 742.25 904.197 737.363 906.856 733.166C911.63 725.631 916.132 717.761 920.014 709.73C931.62 685.715 942.637 661.137 950.033 635.451C953.336 623.98 955.642 612.192 958.073 600.514C962.428 579.587 965.415 559.453 966.267 538.058C967.277 512.703 967.384 486.792 964.685 461.544Q964.185 457.12 963.598 452.707Q963.011 448.293 962.338 443.892Q961.665 439.491 960.906 435.104Q960.147 430.718 959.302 426.346Q958.458 421.975 957.528 417.621Q956.598 413.267 955.583 408.932Q954.568 404.597 953.468 400.283Q952.369 395.969 951.185 391.677Q950.001 387.385 948.734 383.117Q947.466 378.849 946.116 374.607Q944.765 370.364 943.332 366.149Q941.899 361.934 940.383 357.748Q938.868 353.562 937.271 349.406Q935.673 345.25 933.995 341.126Q932.317 337.002 930.559 332.912Q928.8 328.822 926.962 324.767Q925.124 320.712 923.207 316.694Q921.29 312.675 919.295 308.695Q917.3 304.715 915.227 300.775Q913.154 296.835 911.005 292.936Q908.856 289.037 906.631 285.181Q904.405 281.324 902.105 277.513Q899.805 273.701 897.431 269.934Q895.056 266.168 892.609 262.449Q890.161 258.73 887.642 255.06Q885.122 251.389 882.531 247.769Q879.94 244.148 877.278 240.579Q874.617 237.01 871.886 233.493Q869.156 229.977 866.357 226.515Q863.558 223.052 860.692 219.646Q857.826 216.239 854.893 212.888Q851.961 209.538 848.964 206.246Q845.771 202.769 842.507 199.359Q839.243 195.949 835.91 192.606Q832.577 189.263 829.176 185.99Q825.775 182.716 822.307 179.513Q818.839 176.311 815.307 173.179Q811.774 170.048 808.178 166.99Q804.582 163.933 800.924 160.949Q797.266 157.966 793.547 155.058Q789.828 152.15 786.05 149.32Q782.273 146.489 778.438 143.737Q774.603 140.984 770.712 138.311Q766.822 135.638 762.877 133.045Q758.932 130.452 754.935 127.941Q750.938 125.43 746.89 123.001Q742.842 120.573 738.746 118.228Q734.649 115.883 730.505 113.622Q726.36 111.362 722.171 109.187Q717.981 107.012 713.748 104.924Q709.514 102.836 705.239 100.835Q700.963 98.8339 696.648 96.9212Q692.332 95.0085 687.978 93.1848Q683.624 91.3611 679.233 89.6272Q674.843 87.8932 670.418 86.2499Q665.993 84.6065 661.535 83.0543Q657.077 81.5021 652.588 80.0417Q648.099 78.5814 643.581 77.2136Q639.063 75.8457 634.518 74.571Q629.972 73.2962 625.402 72.115Q620.832 70.9338 616.238 69.8467Q611.645 68.7596 607.03 67.767Q602.415 66.7745 597.78 65.8769Q593.146 64.9793 588.494 64.1771C572.674 61.5365 556.552 59.0784 540.499 58.5321Q517.54 57.5497 494.579 58.4773Q471.618 59.4049 448.813 62.236Q444.852 62.7694 440.9 63.3701Q436.949 63.9708 433.008 64.6388Q429.068 65.3068 425.139 66.0417Q421.21 66.7767 417.295 67.5785Q413.379 68.3802 409.478 69.2486Q405.576 70.1169 401.69 71.0516Q397.804 71.9863 393.935 72.987Q390.065 73.9877 386.213 75.0542Q382.361 76.1206 378.528 77.2525Q374.695 78.3845 370.881 79.5815Q367.068 80.7785 363.276 82.0404Q359.483 83.3022 355.713 84.6284Q351.942 85.9546 348.195 87.3449Q344.448 88.7351 340.725 90.189Q337.002 91.6428 333.304 93.1599Q329.606 94.677 325.935 96.2568Q322.263 97.8366 318.62 99.4787Q314.976 101.121 311.36 102.825Q307.745 104.529 304.159 106.294Q300.573 108.059 297.018 109.885Q293.462 111.711 289.939 113.598Q286.415 115.484 282.924 117.43Q279.433 119.376 275.975 121.382Q272.518 123.387 269.095 125.451Q265.672 127.515 262.285 129.637Q258.898 131.758 255.548 133.938Q252.197 136.117 248.884 138.353Q245.572 140.589 242.297 142.881Q239.023 145.173 235.788 147.521Q232.553 149.868 229.359 152.27Q226.165 154.673 223.012 157.129Q219.859 159.585 216.748 162.095C203.32 172.958 191.659 185.491 179.089 197.257C162.843 202.799 150.228 209.993 142.305 226.022C137.345 236.058 136.861 245.543 137.05 256.53C125.026 272.314 115.971 289.578 107.077 307.238Q105.162 310.997 103.317 314.792Q101.472 318.587 99.6987 322.415Q97.9253 326.243 96.2238 330.104Q94.5224 333.965 92.8934 337.857Q91.2645 341.749 89.7086 345.671Q88.1528 349.593 86.6706 353.544Q85.1884 357.494 83.7803 361.471Q82.3723 365.449 81.0389 369.452Q79.7056 373.455 78.4473 377.482Q77.1891 381.509 76.0064 385.559Q74.8237 389.609 73.717 393.681Q72.6103 397.752 71.58 401.844Q70.5496 405.935 69.596 410.045Q68.6424 414.155 67.7658 418.282Q66.8893 422.41 66.0901 426.552Q65.2909 430.695 64.5694 434.852Q63.8479 439.009 63.2043 443.179Q62.5606 447.349 61.9951 451.53Q61.4296 455.711 60.9424 459.902Q60.4553 464.093 60.0466 468.293Q59.6379 472.492 59.3078 476.699Q58.9778 480.905 58.7265 485.117Q58.4752 489.328 58.3027 493.544Q58.1303 497.76 58.0367 501.978Q57.9432 506.196 57.9286 510.415Q57.914 514.634 57.9783 518.853Q58.0426 523.072 58.1858 527.289Q58.3291 531.505 58.5512 535.719Q58.7733 539.932 59.0742 544.141Q59.3751 548.349 59.7547 552.551Q60.1342 556.753 60.5924 560.948Q61.0505 565.142 61.587 569.327C69.9404 630.913 88.5673 687.304 119.988 740.947C124.037 747.859 132.49 762.821 137.052 768.114L137.226 812.28C137.241 825.023 136.018 838.867 139.019 851.279C144.32 865.321 151.921 876.425 166.039 882.718Q169.374 884.196 172.896 885.144Q176.418 886.092 180.044 886.489C188.773 887.53 197.92 886.944 206.706 886.845C223.348 886.658 240.274 886.226 256.901 886.92C267.471 895.019 279.232 900.981 290.06 908.574L294.975 910.882C313.364 921.962 332.615 930.677 352.619 938.371Q356.61 939.883 360.628 941.32Q364.647 942.756 368.692 944.116Q372.737 945.476 376.807 946.759Q380.877 948.041 384.971 949.246Q389.065 950.452 393.181 951.579Q397.297 952.706 401.433 953.755Q405.57 954.804 409.726 955.774Q413.882 956.744 418.055 957.635Q422.229 958.526 426.418 959.337Q430.608 960.149 434.812 960.88Q439.017 961.612 443.234 962.264Q447.452 962.916 451.681 963.488Q455.91 964.059 460.149 964.55Q464.388 965.042 468.636 965.452Q472.884 965.863 477.138 966.193Q481.393 966.522 485.653 966.771Q489.914 967.02 494.178 967.188Q498.442 967.356 502.709 967.443Q506.975 967.53 511.243 967.536Q515.51 967.542 519.777 967.467Q524.044 967.391 528.309 967.235Q532.574 967.079 536.834 966.842Q541.095 966.605 545.351 966.287Q549.607 965.969 553.856 965.57Q558.104 965.171 562.345 964.691Q566.585 964.212 570.816 963.652Q575.047 963.092 579.266 962.452Q583.485 961.812 587.692 961.092Q591.898 960.371 596.09 959.571Q600.282 958.771 604.458 957.892Q608.634 957.013 612.792 956.054Q616.951 955.095 621.09 954.058C638.08 949.855 658.095 944.597 673.569 936.306C675.437 936.013 677.085 935.365 678.846 934.692C692.908 929.457 713.37 920.981 725.944 913.386C738.335 913.841 750.914 913.384 763.319 913.311L829.167 913.07L864.901 913.145C871.703 913.169 880.265 914.176 886.785 912.532C891.895 911.244 894.668 907.435 897.175 903.117C898.34 896.646 897.977 889.783 897.986 883.229L897.995 855.686C898.025 819.393 897.699 783.065 898.128 746.776Z"/>-->
	<path fill="#C2D9E7" d="M714.554 196.129C718.053 178.132 716.351 160.432 705.969 144.922C696.632 130.975 684.732 122.587 668.184 119.357C659.382 117.639 651.559 118.105 642.956 120.513C630.991 100.233 618.825 87.2532 595.306 81.1269Q593.539 80.6606 591.751 80.2834Q589.962 79.9063 588.157 79.6192Q586.352 79.3322 584.535 79.1359Q582.718 78.9397 580.894 78.8348Q579.069 78.7299 577.241 78.7166Q575.414 78.7032 573.588 78.7815Q571.762 78.8598 569.942 79.0295Q568.123 79.1992 566.314 79.4599Q564.505 79.7206 562.711 80.0716Q560.918 80.4227 559.144 80.8632Q557.37 81.3036 555.621 81.8325Q553.871 82.3613 552.151 82.9771Q550.43 83.593 548.742 84.2943Q547.054 84.9956 545.404 85.7807Q543.753 86.5657 542.144 87.4324Q540.536 88.2992 538.972 89.2455C523.141 98.6853 512.732 113.578 507.384 131.076C490.774 124.432 476.22 123.477 459.348 130.676C444.961 136.814 432.664 149.419 426.95 163.98C422.812 174.527 422.276 184.731 422.611 195.938L300.021 195.954L259.464 195.938C251.645 195.946 243.503 195.531 235.739 196.39L202.8 196.46C194.958 196.458 186.851 196.021 179.089 197.257C191.659 185.491 203.32 172.958 216.748 162.095Q219.859 159.585 223.012 157.129Q226.165 154.673 229.359 152.27Q232.553 149.868 235.788 147.521Q239.023 145.173 242.297 142.881Q245.572 140.589 248.884 138.353Q252.197 136.117 255.548 133.938Q258.898 131.758 262.285 129.637Q265.672 127.515 269.095 125.451Q272.518 123.387 275.975 121.382Q279.433 119.376 282.924 117.43Q286.415 115.484 289.939 113.598Q293.462 111.711 297.018 109.885Q300.573 108.059 304.159 106.294Q307.745 104.529 311.36 102.825Q314.976 101.121 318.62 99.4787Q322.263 97.8366 325.935 96.2568Q329.606 94.677 333.304 93.1599Q337.002 91.6428 340.725 90.189Q344.448 88.7351 348.195 87.3449Q351.942 85.9546 355.713 84.6284Q359.483 83.3022 363.276 82.0404Q367.068 80.7786 370.881 79.5815Q374.695 78.3845 378.528 77.2526Q382.361 76.1206 386.213 75.0542Q390.065 73.9877 393.935 72.987Q397.804 71.9863 401.69 71.0516Q405.576 70.1169 409.478 69.2486Q413.379 68.3802 417.295 67.5785Q421.21 66.7767 425.139 66.0417Q429.068 65.3068 433.008 64.6388Q436.949 63.9708 440.9 63.3701Q444.852 62.7694 448.813 62.236Q471.618 59.4049 494.579 58.4773Q517.54 57.5497 540.499 58.5321C556.552 59.0784 572.674 61.5365 588.494 64.1771Q593.146 64.9793 597.78 65.8769Q602.415 66.7745 607.03 67.767Q611.645 68.7596 616.238 69.8467Q620.832 70.9338 625.402 72.115Q629.972 73.2962 634.518 74.571Q639.063 75.8457 643.581 77.2136Q648.099 78.5814 652.588 80.0417Q657.077 81.5021 661.535 83.0543Q665.993 84.6064 670.418 86.2498Q674.843 87.8932 679.233 89.6272Q683.624 91.3611 687.978 93.1848Q692.332 95.0085 696.648 96.9212Q700.963 98.8339 705.239 100.835Q709.514 102.836 713.748 104.924Q717.981 107.012 722.171 109.187Q726.36 111.362 730.505 113.622Q734.649 115.883 738.746 118.228Q742.842 120.573 746.89 123.001Q750.938 125.43 754.935 127.941Q758.932 130.452 762.877 133.045Q766.822 135.638 770.712 138.311Q774.603 140.984 778.438 143.737Q782.273 146.489 786.051 149.32Q789.828 152.15 793.547 155.058Q797.266 157.966 800.924 160.949Q804.582 163.933 808.178 166.99Q811.774 170.048 815.307 173.179Q818.839 176.311 822.307 179.513Q825.775 182.716 829.176 185.99Q832.577 189.263 835.91 192.606Q839.243 195.949 842.507 199.359Q845.771 202.769 848.964 206.246Q851.961 209.538 854.893 212.888Q857.826 216.239 860.692 219.646Q863.558 223.052 866.357 226.515Q869.156 229.977 871.886 233.493Q874.617 237.01 877.278 240.579Q879.94 244.148 882.531 247.769Q885.122 251.389 887.642 255.06Q890.161 258.73 892.609 262.449Q895.056 266.168 897.431 269.934Q899.805 273.701 902.105 277.513Q904.405 281.324 906.631 285.181Q908.856 289.037 911.005 292.936Q913.154 296.835 915.227 300.775Q917.3 304.715 919.295 308.695Q921.29 312.675 923.207 316.694Q925.124 320.712 926.962 324.767Q928.8 328.822 930.559 332.912Q932.317 337.002 933.995 341.126Q935.673 345.25 937.27 349.406Q938.868 353.562 940.383 357.748Q941.899 361.934 943.332 366.149Q944.765 370.364 946.116 374.607Q947.466 378.849 948.734 383.117Q950.001 387.385 951.185 391.677Q952.369 395.969 953.468 400.283Q954.568 404.597 955.583 408.932Q956.598 413.267 957.528 417.621Q958.458 421.975 959.302 426.346Q960.147 430.718 960.906 435.104Q961.665 439.491 962.338 443.892Q963.011 448.293 963.598 452.707Q964.185 457.12 964.685 461.544C967.384 486.792 967.277 512.703 966.267 538.058C965.415 559.453 962.428 579.587 958.073 600.514C955.642 612.192 953.336 623.98 950.033 635.451C942.637 661.137 931.62 685.715 920.014 709.73C916.132 717.761 911.63 725.631 906.856 733.166C904.197 737.363 899.942 742.25 898.128 746.776C897.663 738.75 897.96 730.517 897.911 722.469L897.665 679.555C897.673 672.32 898.934 664.069 897.715 656.989Q897.538 655.99 897.214 655.028Q896.891 654.066 896.426 653.164Q895.962 652.262 895.368 651.439Q894.774 650.616 894.064 649.891C888.377 644.119 870.979 646.407 862.927 646.33C862.914 637.499 863.993 618.098 862.155 610.426C861.55 607.902 860.424 605.632 858.532 603.826C851.072 596.706 835 599.046 825.28 599.146C824.564 571.306 825.155 543.316 825.117 515.46L825.185 340.181L825.433 274.11C825.462 263.32 826.481 251.343 824.882 240.712Q824.717 239.652 824.51 238.599Q824.303 237.547 824.055 236.503Q823.806 235.46 823.516 234.427Q823.226 233.394 822.894 232.374Q822.563 231.353 822.192 230.347Q821.82 229.341 821.409 228.35Q820.997 227.359 820.547 226.386Q820.096 225.412 819.607 224.457Q819.118 223.503 818.591 222.568Q818.064 221.634 817.501 220.721Q816.937 219.808 816.338 218.919Q815.738 218.029 815.103 217.164Q814.469 216.299 813.8 215.46Q813.132 214.621 812.43 213.81Q811.729 212.998 810.995 212.215Q810.262 211.432 809.498 210.679C792.969 194.152 772.699 196.045 751.191 196.132L714.554 196.129Z"/>
	<path fill="#4F8EC4" d="M437.69 196.165Q369.683 196.674 301.674 196.414L258.814 196.438C251.17 196.458 243.367 196.794 235.739 196.39C243.503 195.531 251.645 195.946 259.464 195.938L300.021 195.954L422.611 195.938C422.276 184.731 422.812 174.527 426.95 163.98C432.664 149.419 444.961 136.814 459.348 130.676C476.22 123.477 490.774 124.432 507.384 131.076C512.732 113.578 523.141 98.6853 538.972 89.2455Q540.536 88.2992 542.144 87.4324Q543.753 86.5657 545.404 85.7807Q547.054 84.9956 548.742 84.2943Q550.43 83.593 552.151 82.9771Q553.871 82.3613 555.621 81.8325Q557.37 81.3036 559.144 80.8632Q560.918 80.4227 562.711 80.0716Q564.505 79.7206 566.314 79.4599Q568.123 79.1992 569.942 79.0295Q571.762 78.8598 573.588 78.7815Q575.414 78.7032 577.241 78.7166Q579.069 78.7299 580.894 78.8348Q582.718 78.9397 584.535 79.1359Q586.352 79.3322 588.157 79.6192Q589.962 79.9063 591.751 80.2834Q593.539 80.6606 595.306 81.1269C618.825 87.2532 630.991 100.233 642.956 120.513C651.559 118.105 659.382 117.639 668.184 119.357C684.732 122.587 696.632 130.975 705.969 144.922C716.351 160.432 718.053 178.132 714.554 196.129Q707.195 196.165 699.836 196.094C702.749 188.411 704.241 180.012 702.891 171.84C700.849 159.483 693.345 147.532 683.101 140.344C673.827 133.836 663.183 131.052 651.926 132.645C647.822 133.225 643.799 134.366 639.703 135.043C638.874 135.18 636.733 135.625 635.93 135.314C632.88 134.132 626.537 118.847 623.925 115.275C620.379 110.425 616.145 106.368 611.252 102.89C598.008 93.4743 582.725 89.9901 566.679 92.845C546.936 96.3578 529.16 110.296 521.997 129.108C520.06 134.193 519.385 141.4 516.124 145.749C515.433 146.67 514.253 147.915 513.013 147.966C507.882 148.177 496.05 136.22 476.759 139.145C464.76 140.965 453.363 148.093 446.266 157.912C437.92 169.457 435.42 182.309 437.69 196.165Z"/>
	<path fill="#FDFDFD" d="M437.69 196.165C435.42 182.309 437.92 169.457 446.266 157.912C453.363 148.093 464.76 140.965 476.759 139.145C496.05 136.22 507.882 148.177 513.013 147.966C514.253 147.915 515.433 146.67 516.124 145.749C519.385 141.4 520.06 134.193 521.997 129.108C529.16 110.296 546.936 96.3578 566.679 92.845C582.725 89.9901 598.008 93.4743 611.252 102.89C616.145 106.368 620.379 110.425 623.925 115.275C626.537 118.847 632.88 134.132 635.93 135.314C636.733 135.625 638.874 135.18 639.703 135.043C643.799 134.366 647.822 133.225 651.926 132.645C663.183 131.052 673.827 133.836 683.101 140.344C693.345 147.532 700.849 159.483 702.891 171.84C704.241 180.012 702.749 188.411 699.836 196.094Q658.849 196.426 617.862 196.277L437.69 196.165Z"/>
	<path fill="#0C315A" d="M235.739 196.39C243.367 196.794 251.17 196.458 258.814 196.438L301.674 196.414Q369.683 196.674 437.69 196.165L617.862 196.277Q658.849 196.426 699.836 196.094Q707.195 196.165 714.554 196.129L751.191 196.132C772.699 196.045 792.969 194.152 809.498 210.679Q810.262 211.432 810.995 212.215Q811.729 212.998 812.43 213.81Q813.132 214.621 813.8 215.46Q814.469 216.299 815.103 217.164Q815.738 218.029 816.338 218.919Q816.937 219.808 817.501 220.721Q818.064 221.634 818.591 222.568Q819.118 223.503 819.607 224.457Q820.096 225.412 820.547 226.386Q820.997 227.359 821.409 228.35Q821.82 229.341 822.192 230.347Q822.563 231.353 822.895 232.374Q823.226 233.394 823.516 234.427Q823.806 235.46 824.055 236.503Q824.303 237.547 824.51 238.599Q824.717 239.652 824.882 240.712C826.481 251.343 825.462 263.32 825.433 274.11L825.185 340.181L825.117 515.46C825.155 543.316 824.564 571.306 825.28 599.146C835 599.046 851.072 596.706 858.532 603.826C860.424 605.632 861.55 607.902 862.155 610.426C863.993 618.098 862.914 637.499 862.927 646.33C870.979 646.407 888.377 644.119 894.064 649.891Q894.774 650.616 895.368 651.439Q895.962 652.262 896.426 653.164Q896.89 654.066 897.214 655.028Q897.538 655.99 897.715 656.989C898.934 664.069 897.673 672.32 897.665 679.555L897.911 722.469C897.96 730.517 897.663 738.75 898.128 746.776C897.699 783.065 898.025 819.393 897.995 855.686L897.986 883.229C897.977 889.783 898.34 896.646 897.175 903.117C894.668 907.435 891.895 911.244 886.785 912.532C880.265 914.176 871.703 913.169 864.901 913.145L829.167 913.07L763.319 913.311C750.914 913.384 738.335 913.841 725.944 913.386L594.725 913.005L554.433 913.021C546.861 913.022 538.915 913.539 531.413 912.633C526.841 912.081 523.12 911.001 519.807 907.584C514.423 902.029 515.078 894.265 515.126 887.15C429.075 885.98 342.955 887.894 256.901 886.92C240.274 886.226 223.348 886.658 206.706 886.845C197.92 886.944 188.773 887.53 180.044 886.489Q176.418 886.092 172.896 885.144Q169.374 884.196 166.039 882.718C151.921 876.425 144.32 865.321 139.019 851.279C136.018 838.867 137.241 825.023 137.226 812.28L137.052 768.114L137.05 256.53C136.861 245.543 137.345 236.058 142.305 226.022C150.228 209.993 162.843 202.799 179.089 197.257C186.851 196.021 194.958 196.458 202.8 196.46L235.739 196.39ZM780.629 211.079C772.829 209.908 764.382 210.506 756.487 210.51L713.442 210.545L566.953 210.489L314.291 210.57L229.864 210.698C215.148 210.747 200.055 210.182 185.381 211.145C178.79 211.578 173.064 213.908 167.795 217.846C159.432 224.094 153.346 233.502 151.868 243.901C150.364 254.492 151.469 270.951 151.53 282.067C159.232 274.525 167.543 269.124 178.444 267.76C187.336 266.647 196.591 267.061 205.541 267.08L249.17 267.34L368.197 267.367L704.965 267.42C729.923 267.554 754.908 267.19 779.86 267.517Q780.623 267.525 781.386 267.551C792.524 269.356 802.556 275.562 810.541 283.305C810.533 268.176 812.797 242.557 805.459 229.466C800.06 219.835 791.035 214.048 780.629 211.079ZM235.917 580.271C233.51 596.538 239.529 613.709 249.229 626.627Q250.116 627.817 251.06 628.961Q252.004 630.106 253.004 631.202Q254.004 632.299 255.056 633.345Q256.109 634.39 257.211 635.383Q258.314 636.376 259.465 637.312Q260.615 638.25 261.811 639.129Q263.006 640.008 264.243 640.827Q265.48 641.646 266.756 642.403Q268.033 643.16 269.345 643.853Q270.656 644.546 272.001 645.173Q273.346 645.801 274.719 646.361Q276.093 646.922 277.493 647.414Q278.893 647.906 280.315 648.328Q281.738 648.75 283.179 649.102Q284.621 649.453 286.078 649.733Q287.535 650.013 289.004 650.221C298.153 651.515 307.863 650.859 317.1 650.798L360.143 650.627L515.546 650.591L515.626 619.025Q515.779 607.511 515.629 595.998C515.592 591.423 515.078 586.435 515.952 581.941C516.928 576.927 519.344 573.285 523.694 570.553C525.738 569.27 527.65 568.644 530.056 568.495C536.992 568.062 544.116 568.408 551.079 568.416L590.572 568.423L638.736 568.424C645.449 568.429 659.712 567.405 665.714 569.157C668.809 570.061 672.061 572.192 674.434 574.335C685.384 584.222 679.823 590.773 684.303 598.6C687.772 600.664 716.652 599.459 722.468 599.448C728.778 571.082 716.143 543.512 690.746 529.51C683.617 525.58 676.17 524.323 668.846 521.212C667.185 520.507 664.015 519.172 663.261 517.351C661.125 512.192 669.259 503.566 671.808 499.438C673.475 496.738 674.837 493.827 676.019 490.886Q676.582 489.478 677.077 488.044Q677.571 486.609 677.996 485.153Q678.42 483.697 678.773 482.222Q679.127 480.747 679.409 479.256Q679.69 477.766 679.899 476.263Q680.108 474.761 680.245 473.25Q680.381 471.739 680.443 470.224Q680.506 468.708 680.496 467.191Q680.485 465.675 680.401 464.16Q680.317 462.645 680.16 461.137Q680.002 459.628 679.772 458.129Q679.542 456.629 679.24 455.143Q678.937 453.657 678.563 452.187Q678.189 450.717 677.744 449.266Q677.299 447.816 676.785 446.389Q676.27 444.962 675.687 443.562C664.814 418.132 637.846 399.425 609.561 402.235C604.7 402.718 588.403 407.658 585.288 406.288C582.091 404.883 574.599 386.801 571.64 382.561Q570.706 381.194 569.721 379.862Q568.737 378.531 567.705 377.237Q566.672 375.942 565.592 374.687Q564.513 373.431 563.387 372.217Q562.262 371.002 561.093 369.83Q559.923 368.657 558.711 367.529Q557.5 366.401 556.247 365.318Q554.994 364.235 553.703 363.199Q552.411 362.163 551.082 361.175Q549.753 360.188 548.388 359.25Q547.023 358.312 545.625 357.425Q544.227 356.538 542.797 355.703Q541.367 354.869 539.907 354.087Q538.447 353.306 536.959 352.579Q535.471 351.852 533.958 351.181Q532.444 350.509 530.907 349.894C508.9 341.141 482.638 342.272 461.074 351.702Q459.931 352.19 458.802 352.71Q457.673 353.23 456.56 353.782Q455.447 354.335 454.35 354.919Q453.253 355.503 452.173 356.118Q451.093 356.734 450.032 357.38Q448.97 358.026 447.927 358.703Q446.885 359.379 445.862 360.085Q444.839 360.791 443.837 361.526Q442.835 362.262 441.855 363.025Q440.874 363.789 439.916 364.58Q438.958 365.372 438.023 366.191Q437.088 367.009 436.177 367.855Q435.266 368.7 434.379 369.571Q433.493 370.442 432.632 371.338Q431.77 372.235 430.936 373.155Q430.101 374.076 429.292 375.02Q428.484 375.964 427.703 376.931Q426.923 377.898 426.17 378.887Q425.418 379.876 424.694 380.886Q423.97 381.897 423.275 382.927Q422.581 383.958 421.916 385.008Q421.251 386.058 420.617 387.127Q419.983 388.196 419.38 389.283Q418.777 390.369 418.205 391.473Q417.633 392.576 417.093 393.696Q416.553 394.815 416.046 395.95Q415.539 397.084 415.064 398.233Q414.589 399.381 414.148 400.543Q413.707 401.705 413.299 402.879Q412.891 404.053 412.517 405.238Q412.143 406.423 411.803 407.619Q411.463 408.814 411.158 410.019C409.501 416.842 409.938 425.831 407.552 431.905C406.039 433.392 403.529 434.801 401.326 434.227C396.738 433.032 391.807 429.2 387.572 426.967C372.36 418.947 355.531 417.861 338.968 422.094Q337.258 422.54 335.572 423.068Q333.886 423.597 332.228 424.208Q330.57 424.819 328.945 425.511Q327.319 426.203 325.729 426.973Q324.138 427.744 322.588 428.592Q321.038 429.439 319.531 430.362Q318.024 431.285 316.565 432.281Q315.105 433.276 313.696 434.343Q312.287 435.409 310.932 436.543Q309.577 437.677 308.279 438.876Q306.981 440.075 305.744 441.336Q304.506 442.598 303.332 443.918Q302.159 445.239 301.051 446.615Q299.943 447.992 298.904 449.421Q297.865 450.851 296.898 452.329Q295.931 453.808 295.037 455.332C284.629 473.226 283.188 493.144 288.469 512.822C289.341 513.499 290.261 514.183 291.032 514.976C292.192 516.17 293.177 519.125 293.03 520.755C292.85 522.753 291.829 524.219 290.103 525.185C287.139 526.842 282.661 527.196 279.343 527.992C271.39 529.9 263.265 534.791 257.041 540.029Q255.923 540.964 254.851 541.952Q253.78 542.94 252.759 543.98Q251.737 545.019 250.767 546.107Q249.798 547.195 248.882 548.33Q247.967 549.464 247.108 550.641Q246.25 551.819 245.449 553.037Q244.649 554.255 243.91 555.511Q243.17 556.767 242.493 558.057Q241.815 559.348 241.202 560.67Q240.588 561.992 240.04 563.342Q239.492 564.693 239.01 566.068Q238.529 567.444 238.115 568.842Q237.701 570.239 237.356 571.655Q237.012 573.071 236.736 574.503Q236.461 575.934 236.256 577.377Q236.051 578.82 235.917 580.271ZM223.25 608.291C217.983 589.21 219.823 567.761 229.6 550.398C238.953 533.79 255.035 519.336 273.517 513.816C267.897 491.233 270.248 467.454 282.409 447.287Q282.971 446.35 283.556 445.426Q284.14 444.503 284.748 443.594Q285.355 442.686 285.985 441.792Q286.614 440.899 287.266 440.021Q287.917 439.144 288.59 438.282Q289.263 437.421 289.957 436.577Q290.651 435.732 291.365 434.905Q292.08 434.078 292.814 433.269Q293.549 432.46 294.303 431.669Q295.058 430.878 295.831 430.106Q296.605 429.334 297.398 428.582Q298.19 427.829 299.001 427.096Q299.811 426.363 300.64 425.65Q301.469 424.938 302.315 424.245Q303.16 423.553 304.023 422.882Q304.886 422.211 305.765 421.562Q306.644 420.912 307.538 420.284Q308.433 419.657 309.343 419.051Q310.253 418.446 311.178 417.863Q312.102 417.28 313.041 416.72Q313.979 416.16 314.932 415.624Q315.884 415.087 316.849 414.574Q317.814 414.061 318.791 413.573Q319.769 413.084 320.758 412.619Q321.747 412.154 322.748 411.714Q323.748 411.274 324.759 410.858Q325.77 410.443 326.791 410.052Q327.812 409.662 328.842 409.297Q329.872 408.932 330.911 408.592Q331.95 408.253 332.996 407.939Q334.043 407.625 335.098 407.337Q336.152 407.049 337.213 406.787C356.707 402.087 376.062 404.45 394.122 412.992C401.468 384.067 417.133 359.563 443.177 343.992Q444.305 343.326 445.449 342.687Q446.593 342.048 447.752 341.438Q448.911 340.827 450.085 340.245Q451.259 339.663 452.446 339.109Q453.634 338.556 454.835 338.032Q456.036 337.508 457.249 337.013Q458.462 336.518 459.687 336.053Q460.912 335.588 462.147 335.153Q463.383 334.718 464.629 334.313Q465.875 333.908 467.131 333.534Q468.386 333.16 469.651 332.816Q470.915 332.472 472.188 332.16Q473.46 331.847 474.739 331.566Q476.019 331.284 477.305 331.034Q478.591 330.784 479.883 330.565Q481.175 330.346 482.471 330.159Q483.768 329.971 485.069 329.816Q486.37 329.66 487.674 329.536Q488.979 329.413 490.285 329.321Q491.592 329.229 492.901 329.169Q494.21 329.109 495.52 329.08Q496.83 329.052 498.14 329.056Q499.45 329.06 500.76 329.096Q502.069 329.131 503.378 329.199Q504.686 329.267 505.993 329.366Q507.299 329.466 508.603 329.597Q509.906 329.728 511.206 329.892Q512.506 330.055 513.802 330.249Q515.098 330.444 516.388 330.67Q517.678 330.897 518.963 331.154Q520.248 331.412 521.526 331.701Q522.803 331.99 524.074 332.31C550.058 339.087 573.068 355.271 586.67 378.713C588.777 382.344 590.658 386.127 592.58 389.859C616.884 385.141 638.163 386.657 659.285 400.759C676.621 412.333 689.527 431.604 693.569 452.057C697.578 472.346 693.301 491.997 682.937 509.605C705.825 518.09 722.375 531.427 732.736 553.838C739.458 568.377 739.997 583.568 738.565 599.292L809.796 599.288C810.459 535.261 809.741 471.193 809.845 407.161L809.755 343.675C809.725 333.229 810.682 321.757 809.242 311.426C808.252 304.322 804.809 297.813 799.779 292.725C795.016 287.908 787.341 283.071 780.536 282.191C773.157 281.237 765.184 281.813 757.734 281.839L725.982 281.674L601.302 281.716L335.692 281.683C286.632 281.717 237.523 281.247 188.47 281.893C177.606 282.037 168.405 284.846 160.709 292.875C156.674 297.085 153.231 302.867 152.65 308.735C151.89 316.395 152.286 324.228 152.297 331.92L152.333 369.905L152.412 495.021L152.429 714.356L152.466 794.25C152.465 808.828 152.106 823.489 152.484 838.059C152.716 847.014 155.297 855.749 161.839 862.181C167.026 867.281 174.75 871.305 182.002 872.218C192.85 873.584 207.506 872.445 218.673 872.444L296.358 872.481L439.311 872.462C463.614 872.427 488.048 872.873 512.334 872.143L515.357 872.037L515.507 839.062L515.621 804.39C515.951 791.453 515.622 778.441 515.564 765.497C515.481 753.507 515.977 741.496 515.604 729.513C516.76 723.135 515.958 715.282 515.956 708.727L515.946 665.81L363.516 665.889L318.149 665.927C308.673 665.935 298.918 666.412 289.5 665.339C279.506 664.201 270.743 661.448 261.883 656.666C242.537 646.226 229.46 629.319 223.25 608.291ZM530.835 582.231C529.588 583.534 529.824 585.452 529.839 587.205L529.878 804.678C529.855 834.035 529.192 863.544 529.858 892.886C529.894 894.512 529.745 896.618 530.481 898.082C533.008 899.645 536.754 899.091 539.635 899.005Q542.623 870.873 544.88 842.673L554.134 733.643L558.231 684.411C558.91 676.507 559.081 668.183 560.433 660.379C561.136 656.325 561.948 652.571 565.335 649.918C572.607 644.224 586.425 646.343 595.178 646.196L849.034 646.117C849.054 635.142 849.428 624.044 848.877 613.085C810.141 612.253 771.245 613.046 732.493 613.088L701.212 613.094C695.122 613.089 688.703 613.486 682.666 612.692C678.427 612.135 675.775 611.363 672.766 608.146C665.1 599.95 672.206 590.055 662.434 582.589C641.361 581.531 619.963 582.308 598.855 582.277C576.254 582.244 553.413 581.469 530.835 582.231ZM576.586 660.131C575.241 660.818 574.662 661.025 574.219 662.527C572.458 668.497 572.662 678.527 572.153 684.91L568.408 728.939L559.257 835.396L555.44 881.431C554.959 887.135 554.801 892.887 554.135 898.57L860.375 898.573C867.943 898.545 875.626 898.79 883.177 898.364C883.559 868.799 883.181 839.197 883.182 809.627L883.357 660.069C819.274 659.398 755.131 659.89 691.042 659.98L617.645 660.006C603.977 660.007 590.246 659.74 576.586 660.131Z"/>
	<path fill="#4F8EC4" d="M151.53 282.067C151.469 270.951 150.364 254.492 151.868 243.901C153.346 233.502 159.432 224.094 167.795 217.846C173.064 213.908 178.79 211.578 185.381 211.145C200.055 210.182 215.148 210.747 229.864 210.698L314.291 210.57L566.953 210.489L713.442 210.545L756.487 210.51C764.382 210.506 772.829 209.908 780.629 211.079C782.626 219.64 781.481 230.007 781.444 238.836C781.404 248.4 781.6 257.991 781.386 267.551Q780.623 267.525 779.86 267.517C754.908 267.19 729.923 267.554 704.965 267.42L368.197 267.367L249.17 267.34L205.541 267.08C196.591 267.061 187.336 266.647 178.444 267.76C167.543 269.124 159.232 274.525 151.53 282.067ZM283.424 233.091C280.421 233.752 277.973 234.633 276.238 237.338C274.973 239.309 274.604 241.55 275.148 243.829C275.732 246.277 277.481 248.3 279.696 249.445C282.066 250.67 284.921 250.481 287.485 250.152C290.561 248.886 293.286 247.565 294.65 244.335C295.432 242.486 295.5 240.462 294.676 238.612C293.647 236.301 291.356 234.505 288.97 233.754C287.279 233.221 285.195 233.038 283.424 233.091ZM198.429 233.597C195.52 234.808 193.534 236.361 192.215 239.317C191.473 240.979 191.582 242.906 192.268 244.564C193.301 247.066 195.479 248.818 197.989 249.714C201.814 251.08 206.302 250.624 210.273 250.186C213.146 248.894 215.273 247.28 216.418 244.228C217.092 242.431 216.789 240.584 215.905 238.927C214.421 236.145 211.726 234.638 208.78 233.828C205.589 232.951 201.718 233.411 198.429 233.597ZM240.468 233.606C237.874 234.88 235.905 236.155 234.845 238.973C234.027 241.147 234.304 243.448 235.367 245.485C236.619 247.886 239.002 249.811 241.608 250.553C243.991 251.231 246.226 250.733 248.594 250.24C251.496 248.66 254.044 247.038 255.037 243.685C255.577 241.862 255.213 239.886 254.206 238.292C252.675 235.869 249.61 234.042 246.794 233.621C244.719 233.311 242.552 233.457 240.468 233.606Z"/>
	<path fill="#3A7AB4" d="M780.629 211.079C791.035 214.048 800.06 219.835 805.459 229.466C812.797 242.557 810.533 268.176 810.541 283.305C802.556 275.562 792.524 269.356 781.386 267.551C781.6 257.991 781.404 248.4 781.444 238.836C781.481 230.007 782.626 219.64 780.629 211.079Z"/>
	<path fill="#DCBA7B" d="M287.485 250.152C284.921 250.481 282.066 250.67 279.696 249.445C277.481 248.3 275.732 246.277 275.148 243.829C274.604 241.55 274.973 239.309 276.238 237.338C277.973 234.633 280.421 233.752 283.424 233.091C285.195 233.038 287.279 233.221 288.97 233.754C291.356 234.505 293.647 236.301 294.676 238.612C295.5 240.462 295.432 242.486 294.65 244.335C293.286 247.565 290.561 248.886 287.485 250.152Z"/>
	<path fill="#FDFDFD" d="M210.273 250.186C206.302 250.624 201.814 251.08 197.989 249.714C195.479 248.818 193.301 247.066 192.268 244.564C191.582 242.906 191.473 240.979 192.215 239.317C193.534 236.361 195.52 234.808 198.429 233.597C201.718 233.411 205.589 232.951 208.78 233.828C211.726 234.638 214.421 236.145 215.905 238.927C216.789 240.584 217.092 242.431 216.418 244.228C215.273 247.28 213.146 248.894 210.273 250.186Z"/>
	<path fill="#DCBA7B" d="M248.594 250.24C246.226 250.733 243.991 251.231 241.608 250.553C239.002 249.811 236.619 247.886 235.367 245.485C234.304 243.448 234.027 241.147 234.845 238.973C235.905 236.155 237.874 234.88 240.468 233.606C242.552 233.457 244.719 233.311 246.794 233.621C249.61 234.042 252.675 235.869 254.206 238.292C255.213 239.886 255.577 241.862 255.037 243.685C254.044 247.038 251.496 248.66 248.594 250.24Z"/>
	<path fill="#C2D9E7" d="M137.052 768.114C132.49 762.821 124.037 747.859 119.988 740.947C88.5673 687.304 69.9404 630.913 61.587 569.327Q61.0505 565.142 60.5924 560.948Q60.1342 556.753 59.7547 552.551Q59.3751 548.349 59.0742 544.141Q58.7733 539.932 58.5512 535.719Q58.3291 531.505 58.1858 527.289Q58.0426 523.072 57.9783 518.853Q57.914 514.634 57.9286 510.415Q57.9432 506.196 58.0368 501.978Q58.1303 497.76 58.3028 493.544Q58.4752 489.328 58.7265 485.117Q58.9778 480.905 59.3078 476.698Q59.6379 472.492 60.0466 468.293Q60.4553 464.093 60.9425 459.902Q61.4296 455.711 61.9951 451.53Q62.5606 447.349 63.2043 443.179Q63.8479 439.009 64.5694 434.852Q65.291 430.695 66.0901 426.552Q66.8893 422.41 67.7659 418.282Q68.6424 414.155 69.596 410.045Q70.5496 405.935 71.58 401.844Q72.6103 397.752 73.717 393.681Q74.8237 389.609 76.0064 385.559Q77.1891 381.509 78.4473 377.482Q79.7056 373.455 81.0389 369.452Q82.3723 365.449 83.7803 361.471Q85.1884 357.494 86.6706 353.544Q88.1528 349.593 89.7086 345.671Q91.2645 341.749 92.8934 337.857Q94.5224 333.965 96.2238 330.104Q97.9253 326.243 99.6987 322.415Q101.472 318.587 103.317 314.792Q105.162 310.997 107.077 307.238C115.971 289.578 125.026 272.314 137.05 256.53L137.052 768.114Z"/>
	<path fill="#FDFDFD" d="M273.517 513.816C255.035 519.336 238.953 533.79 229.6 550.398C219.823 567.761 217.983 589.21 223.25 608.291C229.46 629.319 242.537 646.226 261.883 656.666C270.743 661.448 279.506 664.201 289.5 665.339C298.918 666.412 308.673 665.935 318.149 665.927L363.516 665.889L515.946 665.81L515.956 708.727C515.958 715.282 516.76 723.135 515.604 729.513C414.435 730.652 313.182 729.912 212.003 729.835Q212.294 747.462 212.348 765.091C246.221 766.201 280.365 764.961 314.268 764.995L515.564 765.497C515.622 778.441 515.951 791.453 515.621 804.39L212.03 804.087Q212.469 821.534 212.489 838.986L515.507 839.062L515.357 872.037L512.334 872.143C488.048 872.873 463.614 872.427 439.311 872.462L296.358 872.481L218.673 872.444C207.506 872.445 192.85 873.584 182.002 872.218C174.75 871.305 167.026 867.281 161.839 862.181C155.297 855.749 152.716 847.014 152.484 838.059C152.106 823.489 152.465 808.828 152.466 794.25L152.429 714.356L152.412 495.021L152.333 369.905L152.297 331.92C152.286 324.228 151.89 316.395 152.65 308.735C153.231 302.867 156.674 297.085 160.709 292.875C168.405 284.846 177.606 282.037 188.47 281.893C237.523 281.247 286.632 281.717 335.692 281.683L601.302 281.716L725.982 281.674L757.734 281.839C765.184 281.813 773.157 281.237 780.536 282.191C787.341 283.071 795.016 287.908 799.779 292.725C804.809 297.813 808.252 304.322 809.242 311.426C810.682 321.757 809.725 333.229 809.755 343.675L809.845 407.161C809.741 471.193 810.459 535.261 809.796 599.288L738.565 599.292C739.997 583.568 739.458 568.377 732.736 553.838C722.375 531.427 705.825 518.09 682.937 509.605C693.301 491.997 697.578 472.346 693.569 452.057C689.527 431.604 676.621 412.333 659.285 400.759C638.163 386.657 616.884 385.141 592.58 389.859C590.658 386.127 588.777 382.344 586.67 378.713C573.068 355.271 550.058 339.087 524.074 332.31Q522.803 331.99 521.526 331.701Q520.248 331.412 518.963 331.154Q517.678 330.897 516.388 330.67Q515.098 330.444 513.802 330.249Q512.506 330.055 511.206 329.892Q509.906 329.728 508.603 329.597Q507.299 329.466 505.993 329.366Q504.686 329.267 503.378 329.199Q502.069 329.131 500.76 329.096Q499.45 329.06 498.14 329.056Q496.83 329.052 495.52 329.08Q494.21 329.108 492.901 329.169Q491.592 329.229 490.286 329.321Q488.979 329.413 487.674 329.536Q486.37 329.66 485.069 329.816Q483.768 329.971 482.471 330.159Q481.175 330.346 479.883 330.565Q478.591 330.784 477.305 331.034Q476.019 331.284 474.739 331.566Q473.46 331.847 472.188 332.16Q470.915 332.472 469.651 332.816Q468.387 333.16 467.131 333.534Q465.875 333.908 464.629 334.313Q463.383 334.718 462.147 335.153Q460.912 335.588 459.687 336.053Q458.462 336.518 457.249 337.013Q456.036 337.508 454.835 338.032Q453.634 338.556 452.447 339.109Q451.259 339.663 450.085 340.245Q448.911 340.827 447.752 341.438Q446.593 342.048 445.449 342.687Q444.305 343.326 443.177 343.992C417.133 359.563 401.468 384.067 394.122 412.992C376.062 404.45 356.707 402.087 337.213 406.787Q336.152 407.049 335.098 407.337Q334.043 407.625 332.996 407.939Q331.95 408.253 330.911 408.592Q329.872 408.932 328.842 409.297Q327.812 409.662 326.791 410.052Q325.77 410.443 324.759 410.858Q323.748 411.274 322.748 411.714Q321.747 412.154 320.758 412.619Q319.769 413.084 318.791 413.573Q317.814 414.061 316.849 414.574Q315.884 415.087 314.932 415.624Q313.979 416.16 313.041 416.72Q312.102 417.28 311.178 417.863Q310.253 418.446 309.343 419.051Q308.433 419.657 307.538 420.284Q306.644 420.912 305.765 421.562Q304.886 422.211 304.023 422.882Q303.16 423.553 302.315 424.245Q301.469 424.938 300.64 425.65Q299.811 426.363 299.001 427.096Q298.19 427.829 297.398 428.582Q296.605 429.334 295.831 430.106Q295.058 430.878 294.303 431.669Q293.549 432.46 292.814 433.269Q292.08 434.078 291.365 434.905Q290.651 435.732 289.957 436.577Q289.263 437.421 288.59 438.283Q287.917 439.144 287.266 440.021Q286.614 440.899 285.985 441.792Q285.355 442.686 284.748 443.594Q284.14 444.503 283.556 445.426Q282.971 446.35 282.409 447.287C270.248 467.454 267.897 491.233 273.517 513.816Z"/>
	<path fill="#FDFDFD" d="M515.546 650.591L360.143 650.627L317.1 650.798C307.863 650.859 298.153 651.515 289.004 650.221Q287.535 650.013 286.078 649.733Q284.621 649.453 283.179 649.102Q281.738 648.75 280.315 648.328Q278.893 647.906 277.493 647.414Q276.093 646.922 274.719 646.361Q273.346 645.801 272.001 645.173Q270.656 644.546 269.345 643.853Q268.033 643.16 266.756 642.403Q265.48 641.646 264.243 640.827Q263.006 640.008 261.811 639.129Q260.615 638.25 259.465 637.312Q258.314 636.376 257.211 635.383Q256.109 634.39 255.056 633.345Q254.004 632.299 253.004 631.202Q252.004 630.106 251.06 628.961Q250.116 627.817 249.229 626.627C239.529 613.709 233.51 596.538 235.917 580.271Q236.051 578.82 236.256 577.377Q236.461 575.934 236.736 574.503Q237.012 573.071 237.356 571.655Q237.701 570.239 238.115 568.842Q238.529 567.444 239.01 566.068Q239.492 564.693 240.04 563.342Q240.588 561.992 241.202 560.67Q241.815 559.348 242.493 558.057Q243.17 556.767 243.91 555.511Q244.649 554.255 245.449 553.037Q246.25 551.819 247.108 550.641Q247.967 549.464 248.882 548.33Q249.798 547.195 250.767 546.107Q251.737 545.019 252.759 543.98Q253.78 542.94 254.851 541.952Q255.923 540.964 257.041 540.029C263.265 534.791 271.39 529.9 279.343 527.992C282.661 527.196 287.139 526.842 290.103 525.185C291.829 524.219 292.85 522.753 293.03 520.755C293.177 519.125 292.192 516.17 291.032 514.976C290.261 514.183 289.341 513.499 288.469 512.822C283.188 493.144 284.629 473.226 295.037 455.332Q295.931 453.808 296.898 452.329Q297.865 450.851 298.904 449.421Q299.943 447.992 301.051 446.615Q302.159 445.239 303.332 443.918Q304.506 442.598 305.744 441.336Q306.981 440.075 308.279 438.876Q309.577 437.677 310.932 436.543Q312.287 435.409 313.696 434.343Q315.105 433.276 316.565 432.281Q318.024 431.285 319.531 430.362Q321.038 429.439 322.588 428.592Q324.138 427.744 325.729 426.973Q327.319 426.203 328.944 425.511Q330.57 424.819 332.228 424.208Q333.886 423.597 335.572 423.068Q337.258 422.54 338.968 422.094C355.531 417.861 372.36 418.947 387.572 426.967C391.807 429.2 396.738 433.032 401.326 434.227C403.529 434.801 406.039 433.392 407.552 431.905C409.938 425.831 409.501 416.842 411.158 410.019Q411.463 408.814 411.803 407.619Q412.143 406.423 412.517 405.238Q412.891 404.053 413.299 402.879Q413.706 401.705 414.148 400.543Q414.589 399.381 415.064 398.233Q415.539 397.084 416.046 395.95Q416.553 394.815 417.093 393.696Q417.633 392.576 418.205 391.473Q418.777 390.369 419.38 389.283Q419.983 388.196 420.617 387.127Q421.252 386.058 421.916 385.008Q422.581 383.958 423.275 382.927Q423.97 381.897 424.694 380.886Q425.418 379.876 426.17 378.887Q426.923 377.898 427.704 376.931Q428.484 375.964 429.292 375.02Q430.101 374.076 430.935 373.155Q431.77 372.234 432.632 371.338Q433.493 370.442 434.379 369.571Q435.266 368.7 436.177 367.855Q437.088 367.009 438.023 366.191Q438.958 365.372 439.916 364.58Q440.874 363.789 441.855 363.025Q442.835 362.262 443.837 361.526Q444.839 360.791 445.862 360.085Q446.885 359.379 447.927 358.703Q448.97 358.026 450.032 357.38Q451.093 356.734 452.173 356.118Q453.253 355.503 454.35 354.919Q455.447 354.335 456.56 353.782Q457.673 353.23 458.802 352.71Q459.931 352.19 461.074 351.702C482.638 342.272 508.9 341.141 530.907 349.894Q532.444 350.509 533.958 351.181Q535.471 351.852 536.959 352.579Q538.447 353.306 539.907 354.088Q541.367 354.869 542.797 355.703Q544.227 356.538 545.625 357.425Q547.023 358.312 548.388 359.25Q549.753 360.188 551.082 361.175Q552.411 362.163 553.702 363.199Q554.994 364.235 556.247 365.318Q557.5 366.401 558.711 367.529Q559.923 368.657 561.092 369.83Q562.262 371.002 563.387 372.217Q564.512 373.431 565.592 374.687Q566.672 375.942 567.705 377.236Q568.737 378.531 569.721 379.862Q570.706 381.194 571.64 382.561C574.599 386.801 582.091 404.883 585.288 406.288C588.403 407.658 604.7 402.718 609.561 402.235C637.846 399.425 664.814 418.132 675.687 443.562Q676.27 444.962 676.785 446.389Q677.299 447.816 677.744 449.266Q678.189 450.717 678.563 452.187Q678.937 453.657 679.24 455.143Q679.542 456.629 679.772 458.129Q680.002 459.628 680.16 461.137Q680.317 462.645 680.401 464.16Q680.485 465.675 680.496 467.191Q680.506 468.708 680.443 470.224Q680.381 471.739 680.245 473.25Q680.108 474.761 679.899 476.263Q679.69 477.766 679.409 479.256Q679.127 480.747 678.773 482.222Q678.42 483.697 677.996 485.153Q677.571 486.609 677.077 488.044Q676.582 489.478 676.019 490.886C674.837 493.827 673.475 496.738 671.808 499.438C669.259 503.566 661.125 512.192 663.261 517.351C664.015 519.172 667.185 520.507 668.846 521.212C676.17 524.323 683.617 525.58 690.746 529.51C716.143 543.512 728.778 571.082 722.468 599.448C716.652 599.459 687.772 600.664 684.303 598.6C679.823 590.773 685.384 584.222 674.434 574.335C672.061 572.192 668.809 570.061 665.714 569.157C659.712 567.405 645.449 568.429 638.736 568.424L590.572 568.423L551.079 568.416C544.116 568.408 536.992 568.062 530.056 568.495C527.65 568.644 525.738 569.27 523.694 570.553C519.344 573.285 516.928 576.927 515.952 581.941C515.078 586.435 515.592 591.423 515.629 595.998Q515.779 607.511 515.626 619.025L515.546 650.591ZM545.689 422.542C544.146 422.981 542.816 423.475 541.559 424.5C534.919 429.923 500.328 466.207 497.096 471.814Q496.875 472.202 496.693 472.611Q496.512 473.019 496.373 473.444Q496.234 473.869 496.139 474.305Q496.044 474.742 495.993 475.186Q495.942 475.63 495.936 476.077Q495.931 476.524 495.97 476.969Q496.01 477.414 496.094 477.853Q496.178 478.292 496.306 478.72C496.998 480.975 498.491 482.729 500.594 483.785C506.257 486.626 515.36 485.304 521.615 485.755Q521.708 500.91 521.525 516.064C521.45 522.442 520.752 529.55 521.797 535.84C522.045 537.331 522.555 538.559 523.608 539.66C527.717 543.952 533.634 543.565 539.1 543.522C542.441 543.496 545.784 543.412 549.125 543.413C554.477 543.499 564.474 544.979 568.519 541.171C569.858 539.911 570.87 538.219 571.234 536.415C572.417 530.557 571.664 523.447 571.622 517.447Q571.445 501.289 571.533 485.13C578.114 485.074 589.915 486.668 594.895 481.935C596.495 480.416 597.42 478.169 597.423 475.964C597.426 474.272 596.849 472.606 595.894 471.22C593.528 467.784 590.063 464.709 587.163 461.684Q577.083 451.205 566.856 440.869C561.635 435.528 556.674 429.299 551.071 424.393C549.582 423.089 547.612 422.664 545.689 422.542ZM445.035 472.075C443.178 472.81 441.75 473.615 440.248 474.94C435.406 479.214 397.391 518.25 395.779 521.895C394.757 524.206 394.881 526.748 395.87 529.045C396.794 531.193 398.436 533.156 400.648 534.026C406.405 536.29 415.209 534.465 421.435 534.649Q421.609 550.156 421.537 565.664C421.534 571.715 420.828 578.823 422.135 584.754C422.572 586.737 423.701 588.494 425.142 589.9C430.238 594.874 441.715 593.08 448.25 593.05C453.675 593.151 463.346 594.424 467.444 590.436C469.368 588.564 470.318 585.506 470.758 582.935C471.632 577.834 471.079 571.95 471.08 566.751Q471.023 551.126 471.183 535.502L471.991 535.41C478.745 534.674 491.059 537.24 495.768 531.446C497.342 529.511 498.451 526.73 498.168 524.206C497.927 522.063 496.349 520.161 495.039 518.53C486.995 508.511 477.166 499.516 468.269 490.224C463.06 484.785 457.773 477.587 451.669 473.2C449.701 471.785 447.325 471.942 445.035 472.075Z"/>
	<path fill="#0C315A" d="M521.615 485.755C515.36 485.304 506.257 486.626 500.594 483.785C498.491 482.729 496.998 480.975 496.306 478.72Q496.178 478.292 496.094 477.853Q496.01 477.414 495.97 476.969Q495.931 476.524 495.937 476.077Q495.942 475.63 495.993 475.186Q496.044 474.742 496.139 474.305Q496.234 473.869 496.373 473.444Q496.512 473.019 496.693 472.611Q496.875 472.202 497.096 471.814C500.328 466.207 534.919 429.923 541.559 424.5C542.816 423.475 544.146 422.981 545.689 422.542C547.612 422.664 549.582 423.089 551.071 424.393C556.674 429.299 561.635 435.528 566.856 440.869Q577.083 451.205 587.163 461.684C590.063 464.709 593.528 467.784 595.894 471.22C596.849 472.606 597.426 474.272 597.423 475.964C597.42 478.169 596.495 480.416 594.895 481.935C589.915 486.668 578.114 485.074 571.533 485.13Q571.445 501.29 571.622 517.447C571.664 523.447 572.417 530.557 571.234 536.415C570.87 538.219 569.858 539.911 568.519 541.171C564.474 544.979 554.477 543.499 549.125 543.413C545.784 543.412 542.441 543.496 539.1 543.522C533.634 543.565 527.717 543.952 523.608 539.66C522.555 538.559 522.045 537.331 521.797 535.84C520.752 529.55 521.45 522.442 521.525 516.064Q521.708 500.91 521.615 485.755ZM545.864 440.351C536.979 451.039 526.982 460.928 517.548 471.143L536.103 471.165C536.128 490.588 535.784 510.093 536.253 529.506L547.875 529.53L556.973 529.553L556.546 471.104L575.471 471.007C571.642 466.257 567.068 461.923 562.846 457.516C557.296 451.721 551.852 445.696 545.864 440.351Z"/>
	<path fill="#C2D9E7" d="M517.548 471.143C526.982 460.928 536.979 451.039 545.864 440.351C551.852 445.696 557.296 451.721 562.846 457.516C567.068 461.923 571.642 466.257 575.471 471.007L556.546 471.104L556.973 529.553L547.875 529.53L536.253 529.506C535.784 510.093 536.128 490.588 536.103 471.165L517.548 471.143Z"/>
	<path fill="#0C315A" d="M421.435 534.649C415.209 534.465 406.405 536.29 400.648 534.026C398.436 533.156 396.794 531.193 395.87 529.045C394.881 526.748 394.757 524.206 395.779 521.895C397.391 518.25 435.406 479.214 440.248 474.94C441.75 473.615 443.178 472.81 445.035 472.075C447.325 471.942 449.701 471.785 451.669 473.2C457.773 477.587 463.06 484.785 468.269 490.224C477.166 499.516 486.995 508.511 495.039 518.53C496.349 520.161 497.927 522.063 498.168 524.206C498.451 526.73 497.342 529.511 495.768 531.446C491.059 537.24 478.745 534.674 471.991 535.41L471.183 535.502Q471.023 551.126 471.08 566.751C471.079 571.95 471.632 577.834 470.758 582.935C470.318 585.506 469.368 588.564 467.444 590.436C463.346 594.424 453.675 593.151 448.25 593.05C441.715 593.08 430.238 594.874 425.142 589.9C423.701 588.494 422.572 586.737 422.135 584.754C420.828 578.823 421.534 571.715 421.537 565.664Q421.609 550.156 421.435 534.649ZM446.508 488.777C436.886 499.584 427.182 510.157 416.994 520.44L435.855 520.435C435.906 539.743 435.19 559.267 435.72 578.55L449.625 578.687L456.518 578.781L456.54 520.273C463.355 520.132 470.134 519.987 476.942 520.447C472.403 515.65 449.579 490.13 446.508 488.777Z"/>
	<path fill="#C2D9E7" d="M416.994 520.44C427.182 510.157 436.886 499.584 446.508 488.777C449.579 490.13 472.403 515.65 476.942 520.447C470.134 519.987 463.355 520.132 456.54 520.273L456.518 578.781L449.625 578.687L435.72 578.55C435.19 559.267 435.906 539.743 435.855 520.435L416.994 520.44Z"/>
	<path fill="#C2D9E7" d="M539.635 899.005C536.754 899.091 533.008 899.645 530.481 898.082C529.745 896.618 529.894 894.512 529.858 892.886C529.192 863.544 529.855 834.035 529.878 804.678L529.839 587.205C529.824 585.452 529.588 583.534 530.835 582.231C553.413 581.469 576.254 582.244 598.855 582.277C619.963 582.308 641.361 581.531 662.434 582.589C672.206 590.055 665.1 599.95 672.766 608.146C675.775 611.363 678.427 612.135 682.666 612.692C688.703 613.486 695.122 613.089 701.212 613.094L732.493 613.088C771.245 613.046 810.141 612.253 848.877 613.085C849.428 624.044 849.054 635.142 849.034 646.117L595.178 646.196C586.425 646.343 572.607 644.224 565.335 649.918C561.948 652.571 561.136 656.325 560.433 660.379C559.081 668.183 558.91 676.507 558.231 684.411L554.134 733.643L544.88 842.673Q542.623 870.873 539.635 899.005Z"/>
	<path fill="#FDFDFD" d="M554.135 898.57C554.801 892.887 554.959 887.135 555.44 881.431L559.257 835.396L568.408 728.939L572.153 684.91C572.662 678.527 572.458 668.497 574.219 662.527C574.662 661.025 575.241 660.818 576.586 660.131C590.246 659.74 603.977 660.007 617.645 660.006L691.042 659.98C755.131 659.89 819.274 659.398 883.357 660.069L883.182 809.627C883.181 839.197 883.559 868.799 883.177 898.364C875.626 898.79 867.943 898.545 860.375 898.573L554.135 898.57ZM720.038 692.705C693.374 694.408 670.238 705.134 652.479 725.297C637.345 742.48 629.714 766.859 631.175 789.566Q631.25 790.635 631.351 791.703Q631.452 792.77 631.579 793.834Q631.706 794.898 631.86 795.959Q632.013 797.02 632.193 798.077Q632.372 799.134 632.577 800.186Q632.783 801.238 633.014 802.285Q633.245 803.331 633.502 804.372Q633.759 805.413 634.041 806.447Q634.323 807.481 634.631 808.508Q634.938 809.534 635.271 810.553Q635.604 811.572 635.962 812.583Q636.32 813.593 636.702 814.595Q637.085 815.596 637.492 816.588Q637.899 817.579 638.33 818.561Q638.761 819.542 639.217 820.512Q639.672 821.483 640.151 822.442Q640.63 823.401 641.132 824.348Q641.635 825.294 642.16 826.229Q642.686 827.163 643.234 828.084Q643.783 829.005 644.353 829.912Q644.924 830.82 645.517 831.713Q646.11 832.606 646.725 833.484Q647.34 834.362 647.976 835.225Q648.612 836.087 649.269 836.934Q649.926 837.781 650.604 838.612Q651.282 839.442 651.98 840.255Q652.678 841.069 653.396 841.865Q654.113 842.661 654.851 843.439Q655.588 844.218 656.344 844.977Q657.1 845.737 657.875 846.478Q658.649 847.219 659.442 847.941Q660.234 848.663 661.044 849.365C678.529 864.472 698.969 870.843 721.892 870.748C746.76 869.758 770.339 860.168 787.394 841.7Q788.147 840.891 788.879 840.063Q789.612 839.236 790.323 838.39Q791.035 837.545 791.725 836.682Q792.416 835.819 793.084 834.939Q793.753 834.059 794.399 833.162Q795.046 832.266 795.669 831.354Q796.293 830.441 796.894 829.514Q797.495 828.586 798.072 827.644Q798.65 826.702 799.204 825.745Q799.758 824.789 800.287 823.819Q800.817 822.849 801.323 821.866Q801.828 820.883 802.309 819.888Q802.79 818.893 803.246 817.886Q803.701 816.88 804.132 815.862Q804.562 814.844 804.967 813.816Q805.372 812.787 805.752 811.749Q806.131 810.711 806.484 809.664Q806.837 808.617 807.164 807.561Q807.491 806.505 807.792 805.442Q808.092 804.378 808.366 803.308Q808.64 802.237 808.887 801.16Q809.134 800.083 809.354 799Q809.574 797.917 809.767 796.828Q809.96 795.74 810.126 794.648Q810.292 793.555 810.431 792.458Q810.569 791.362 810.68 790.262Q810.792 789.163 810.875 788.061Q810.959 786.959 811.015 785.855Q811.071 784.751 811.1 783.647Q811.128 782.542 811.129 781.437Q811.13 780.332 811.104 779.227Q811.077 778.122 811.023 777.018C810.044 754.225 799.442 731.329 782.626 715.917C766.218 700.88 742.961 691.308 720.493 692.667C720.341 692.676 720.19 692.693 720.038 692.705Z"/>
	<path fill="#0C315A" d="M721.892 870.748C698.969 870.843 678.529 864.472 661.044 849.365Q660.234 848.663 659.441 847.941Q658.649 847.219 657.875 846.478Q657.1 845.737 656.344 844.977Q655.588 844.218 654.851 843.439Q654.113 842.661 653.396 841.865Q652.678 841.069 651.98 840.255Q651.282 839.442 650.604 838.612Q649.926 837.781 649.269 836.934Q648.612 836.087 647.976 835.225Q647.34 834.362 646.725 833.484Q646.11 832.606 645.517 831.713Q644.924 830.82 644.353 829.912Q643.783 829.005 643.234 828.084Q642.686 827.163 642.16 826.229Q641.635 825.294 641.132 824.348Q640.63 823.401 640.151 822.442Q639.672 821.483 639.217 820.512Q638.761 819.542 638.33 818.561Q637.899 817.579 637.492 816.588Q637.085 815.596 636.702 814.595Q636.32 813.593 635.962 812.583Q635.604 811.572 635.271 810.553Q634.939 809.534 634.631 808.508Q634.323 807.481 634.041 806.447Q633.759 805.413 633.502 804.372Q633.245 803.331 633.014 802.285Q632.783 801.238 632.577 800.186Q632.372 799.134 632.193 798.077Q632.013 797.02 631.86 795.959Q631.706 794.898 631.579 793.834Q631.452 792.77 631.351 791.702Q631.25 790.635 631.175 789.566C629.714 766.859 637.345 742.48 652.479 725.297C670.238 705.134 693.374 694.408 720.038 692.705C720.19 692.693 720.341 692.676 720.493 692.667C742.961 691.308 766.218 700.88 782.626 715.917C799.442 731.329 810.044 754.225 811.023 777.018Q811.077 778.122 811.104 779.227Q811.13 780.332 811.129 781.437Q811.128 782.542 811.1 783.647Q811.071 784.752 811.015 785.855Q810.959 786.959 810.875 788.061Q810.792 789.163 810.68 790.263Q810.569 791.362 810.431 792.458Q810.292 793.555 810.126 794.648Q809.96 795.74 809.767 796.828Q809.574 797.917 809.354 799Q809.134 800.083 808.887 801.16Q808.64 802.237 808.366 803.308Q808.092 804.378 807.792 805.442Q807.491 806.505 807.164 807.561Q806.837 808.617 806.484 809.664Q806.131 810.711 805.752 811.749Q805.372 812.787 804.967 813.816Q804.562 814.844 804.132 815.862Q803.701 816.88 803.246 817.886Q802.79 818.893 802.309 819.888Q801.828 820.884 801.323 821.866Q800.817 822.849 800.287 823.819Q799.758 824.789 799.204 825.745Q798.65 826.702 798.072 827.644Q797.495 828.586 796.894 829.514Q796.293 830.441 795.669 831.354Q795.046 832.266 794.399 833.162Q793.753 834.059 793.084 834.939Q792.416 835.819 791.725 836.682Q791.035 837.545 790.323 838.39Q789.612 839.236 788.879 840.063Q788.147 840.891 787.394 841.7C770.339 860.168 746.76 869.758 721.892 870.748ZM715.622 701.199C692.954 703.627 672.441 713.917 657.956 731.719Q657.313 732.503 656.69 733.303Q656.067 734.102 655.463 734.917Q654.86 735.732 654.277 736.561Q653.694 737.391 653.132 738.235Q652.569 739.078 652.028 739.936Q651.487 740.793 650.967 741.664Q650.448 742.534 649.949 743.417Q649.451 744.3 648.975 745.195Q648.499 746.091 648.045 746.997Q647.592 747.904 647.161 748.822Q646.729 749.739 646.321 750.667Q645.913 751.595 645.527 752.533Q645.142 753.471 644.78 754.418Q644.418 755.365 644.08 756.321Q643.742 757.277 643.427 758.24Q643.113 759.204 642.822 760.176Q642.531 761.147 642.265 762.125Q641.998 763.103 641.756 764.088Q641.514 765.072 641.296 766.063Q641.079 767.053 640.885 768.048Q640.692 769.044 640.524 770.043Q640.355 771.043 640.212 772.047Q640.068 773.05 639.949 774.057Q639.831 775.064 639.737 776.074Q639.643 777.083 639.574 778.095Q639.505 779.106 639.462 780.119Q639.418 781.132 639.399 782.146Q639.381 783.16 639.387 784.173Q639.394 785.187 639.425 786.201Q639.457 787.214 639.513 788.226Q639.57 789.239 639.652 790.249Q639.733 791.26 639.84 792.268C641.964 812.498 652.591 832.18 668.526 844.844C683.982 857.126 705.871 864.687 725.697 862.261C725.839 862.243 725.98 862.223 726.121 862.204C748.134 860.325 768.776 850.805 783.064 833.739C797.161 816.903 804.437 796.447 802.358 774.426C800.372 753.385 790.537 733.408 774.102 719.945C758.162 706.887 736.804 698.79 715.998 701.138C715.872 701.152 715.748 701.178 715.622 701.199Z"/>
	<path fill="#FDFDFD" d="M726.121 862.204C725.98 862.223 725.839 862.243 725.697 862.261C705.871 864.687 683.982 857.126 668.526 844.844C652.591 832.18 641.964 812.498 639.84 792.268Q639.733 791.26 639.652 790.249Q639.57 789.239 639.513 788.226Q639.457 787.214 639.425 786.201Q639.394 785.187 639.387 784.173Q639.381 783.16 639.399 782.146Q639.418 781.132 639.462 780.119Q639.505 779.106 639.574 778.095Q639.643 777.083 639.737 776.074Q639.831 775.064 639.949 774.057Q640.068 773.05 640.212 772.047Q640.355 771.043 640.524 770.043Q640.692 769.044 640.885 768.048Q641.079 767.053 641.296 766.063Q641.514 765.072 641.756 764.088Q641.998 763.103 642.265 762.125Q642.531 761.147 642.822 760.176Q643.113 759.204 643.427 758.24Q643.742 757.277 644.08 756.321Q644.418 755.365 644.78 754.418Q645.142 753.471 645.527 752.533Q645.913 751.595 646.321 750.667Q646.729 749.739 647.161 748.822Q647.592 747.904 648.046 746.997Q648.499 746.091 648.975 745.195Q649.451 744.3 649.949 743.417Q650.448 742.534 650.967 741.664Q651.487 740.793 652.028 739.936Q652.569 739.078 653.132 738.235Q653.694 737.391 654.277 736.562Q654.86 735.732 655.463 734.917Q656.067 734.102 656.69 733.303Q657.313 732.503 657.956 731.719C672.441 713.917 692.954 703.627 715.622 701.199C715.748 701.178 715.872 701.152 715.998 701.138C736.804 698.79 758.162 706.887 774.102 719.945C790.537 733.408 800.372 753.385 802.358 774.426C804.437 796.447 797.161 816.903 783.064 833.739C768.776 850.805 748.134 860.325 726.121 862.204ZM719.66 715.315C713.992 718.726 694.541 739.704 688.111 746.082C682.43 751.717 675.839 757.13 670.765 763.279C670.421 764.752 670.459 765.663 670.674 767.163C671.817 768.645 673.153 769.075 674.986 769.319C682.171 770.275 690.096 769.309 697.372 769.394C697.492 780.348 696.263 833.281 698.802 839.267C703.22 843.07 718.913 841.588 725.054 841.562C728.915 841.616 741.452 842.857 744.167 840.125C745.422 838.861 745.773 835.843 745.949 834.162C746.563 828.274 746.191 821.994 746.211 816.063C746.26 800.744 745.688 785.256 746.268 769.961C752.321 769.99 766.955 771.221 772.045 768.919C772.899 767.556 773.186 766.213 772.729 764.653C772.197 762.835 769.501 760.425 768.145 759.062C761.474 752.357 754.124 746.285 747.273 739.755C740.026 732.848 733.179 725.454 725.618 718.89C724.085 717.56 722.716 716.364 720.77 715.666C720.405 715.535 720.033 715.425 719.66 715.315Z"/>
	<path fill="#0C315A" d="M697.372 769.394C690.096 769.309 682.171 770.275 674.986 769.319C673.153 769.075 671.817 768.645 670.674 767.163C670.459 765.663 670.421 764.752 670.765 763.279C675.839 757.13 682.43 751.717 688.111 746.082C694.541 739.704 713.992 718.726 719.66 715.315C720.033 715.425 720.405 715.535 720.77 715.666C722.716 716.364 724.085 717.56 725.618 718.89C733.179 725.454 740.026 732.848 747.273 739.755C754.124 746.285 761.474 752.357 768.145 759.062C769.501 760.425 772.197 762.835 772.729 764.653C773.186 766.213 772.899 767.556 772.045 768.919C766.955 771.221 752.321 769.99 746.268 769.961C745.688 785.256 746.26 800.744 746.211 816.063C746.191 821.994 746.563 828.274 745.949 834.162C745.773 835.843 745.422 838.861 744.167 840.125C741.452 842.857 728.915 841.616 725.054 841.562C718.913 841.588 703.22 843.07 698.802 839.267C696.263 833.281 697.492 780.348 697.372 769.394ZM721.401 725.37Q709.01 736.653 697.114 748.456C692.731 752.746 688.112 756.954 684.095 761.589C688.52 761.505 700.53 760.155 703.781 762.799C706.176 769.072 705.208 822.617 705.336 833.568L721.25 833.565L738.016 833.606L738.173 790.965C738.198 783.736 737.729 776.164 738.364 768.983C738.534 767.057 738.73 764.356 739.944 762.8C741.466 760.85 749.568 761.391 752.017 761.405Q754.884 761.441 757.751 761.438C753.341 755.049 741.652 745.374 735.478 739.288C730.941 734.816 726.381 729.266 721.401 725.37Z"/>
	<path fill="#EF7F65" d="M684.095 761.589C688.112 756.954 692.731 752.746 697.114 748.456Q709.01 736.653 721.401 725.37C726.381 729.266 730.941 734.816 735.478 739.288C741.652 745.374 753.341 755.049 757.751 761.438Q754.884 761.441 752.017 761.405C749.568 761.391 741.466 760.85 739.944 762.8C738.73 764.356 738.534 767.057 738.364 768.983C737.729 776.164 738.198 783.736 738.173 790.965L738.016 833.606L721.25 833.565L705.336 833.568C705.208 822.617 706.176 769.072 703.781 762.799C700.53 760.155 688.52 761.505 684.095 761.589Z"/>
	<path fill="#C2D9E7" d="M212.003 729.835C313.182 729.912 414.435 730.652 515.604 729.513C515.977 741.496 515.481 753.507 515.564 765.497L314.268 764.995C280.365 764.961 246.221 766.201 212.348 765.091Q212.294 747.462 212.003 729.835Z"/>
	<path fill="#C2D9E7" d="M212.03 804.087L515.621 804.39L515.507 839.062L212.489 838.986Q212.469 821.534 212.03 804.087Z"/>
	<path fill="#C2D9E7" d="M256.901 886.92C342.955 887.894 429.075 885.98 515.126 887.15C515.078 894.265 514.423 902.029 519.807 907.584C523.12 911.001 526.841 912.081 531.413 912.633C538.915 913.539 546.861 913.022 554.433 913.021L594.725 913.005L725.944 913.386C713.37 920.981 692.908 929.457 678.846 934.692C677.085 935.365 675.437 936.013 673.569 936.306C658.095 944.597 638.08 949.855 621.09 954.058Q616.951 955.095 612.792 956.054Q608.634 957.013 604.458 957.892Q600.282 958.771 596.09 959.571Q591.898 960.371 587.692 961.092Q583.485 961.812 579.266 962.452Q575.047 963.092 570.816 963.652Q566.585 964.212 562.345 964.691Q558.104 965.171 553.856 965.57Q549.607 965.969 545.351 966.287Q541.095 966.605 536.834 966.842Q532.574 967.079 528.309 967.235Q524.044 967.391 519.777 967.467Q515.51 967.542 511.243 967.536Q506.975 967.53 502.709 967.443Q498.442 967.356 494.178 967.188Q489.914 967.02 485.653 966.771Q481.393 966.522 477.138 966.193Q472.884 965.863 468.636 965.452Q464.388 965.042 460.149 964.55Q455.91 964.059 451.681 963.488Q447.452 962.916 443.234 962.264Q439.017 961.612 434.812 960.88Q430.608 960.149 426.418 959.337Q422.229 958.526 418.055 957.635Q413.882 956.744 409.726 955.774Q405.57 954.804 401.433 953.755Q397.297 952.706 393.181 951.579Q389.065 950.452 384.971 949.246Q380.877 948.041 376.807 946.759Q372.737 945.476 368.692 944.116Q364.647 942.756 360.628 941.32Q356.61 939.883 352.619 938.371C332.615 930.677 313.364 921.962 294.975 910.882L290.06 908.574C279.232 900.981 267.471 895.019 256.901 886.92Z"/>
</svg>
